<svg width="200" height="200" viewBox="0 0 200 200" xmlns="http://www.w3.org/2000/svg">
    <title>Poncho.club</title>
    <circle cx="43.51" cy="126.87" r="2.35" fill="#64ffda"/>
    <circle cx="54.87" cy="132.15" r="2.35" fill="#64ffda"/>
    <circle cx="66.23" cy="137.43" r="2.35" transform="translate(-21.16 12.38) rotate(-9.22)" fill="#64ffda"/>
    <circle cx="77.59" cy="142.71" r="2.35" transform="translate(-30.71 21.64) rotate(-13.28)" fill="#64ffda"/>
    <circle cx="88.95" cy="147.98" r="2.35" fill="#64ffda"/>
    <circle cx="100.31" cy="152.38" r="2.35" fill="#64ffda"/>
    <circle cx="111.76" cy="147.29" r="2.35" fill="#64ffda"/>
    <circle cx="123.2" cy="142.2" r="2.35" transform="translate(-55.32 201.6) rotate(-67.5)" fill="#64ffda"/>
    <path d="M137,137.1a2.36,2.36,0,1,0-2.36,2.36A2.36,2.36,0,0,0,137,137.1Z" fill="#64ffda"/>
    <circle cx="146.09" cy="132.01" r="2.35" transform="translate(-19.26 25.11) rotate(-9.22)" fill="#64ffda"/>
    <circle cx="157.53" cy="126.92" r="2.35" fill="#64ffda"/>
    <path d="M177.05,135.46,151.72,13.9a3.9,3.9,0,0,0-3.81-3.1H105a3.9,3.9,0,0,0,0,7.79h13.48c-1.23,8.18-9.42,14.52-19.32,14.52S81.12,26.77,79.88,18.59h6.63a3.9,3.9,0,0,0,0-7.79H54.59a3.88,3.88,0,0,0-3.8,3.06L30.92,104.45a3.9,3.9,0,0,0,3,4.64,4,4,0,0,0,.84.09,3.9,3.9,0,0,0,3.66-2.6l59,31.12a2.74,2.74,0,0,0,1.27.31,2.69,2.69,0,0,0,1.21-.28l63.16-31.24,5.78,27.73-67.58,36.95L33.67,134.22l2.53-12.17a3.9,3.9,0,1,0-7.63-1.59l-3.12,15a3.92,3.92,0,0,0,1.95,4.22l.31.17V156.4a2.92,2.92,0,0,0,5.84,0V143l9.94,5.43v18.84a2.92,2.92,0,0,0,5.84,0V151.67l10.13,5.53v17.32a2.93,2.93,0,0,0,5.85,0V160.4l10.13,5.54v15.79a2.92,2.92,0,1,0,5.84,0v-12.6L91,174.46v16.42a2.93,2.93,0,1,0,5.85,0V177.65L99.38,179a4,4,0,0,0,3.74,0l2.71-1.48v13.53a2.92,2.92,0,0,0,5.84,0V174.35l9.74-5.32v12.89a2.93,2.93,0,0,0,5.85,0V165.83l10.13-5.54v14.42a2.92,2.92,0,1,0,5.84,0V157.1l10.13-5.54v15.95a2.93,2.93,0,0,0,5.85,0V148.37l9.93-5.44V156.6a2.92,2.92,0,0,0,5.84,0V139.74l.12-.06A3.91,3.91,0,0,0,177.05,135.46ZM160,91.62v10.31l-11.41,5.64V95.94l11.14-5.62ZM119.3,110.7V122l-11.4,5.64V116.46Zm2.14-1.08,11.41-5.76v11.48L121.44,121ZM135,102.78,146.4,97v11.61L135,114.28ZM57.73,18.59H72C73.25,31.07,85,40.9,99.2,40.9s26-9.83,27.17-22.31h18.37l5.4,26L99.34,69.16,52.05,44.49ZM51,49.22,98.22,73.85a2.29,2.29,0,0,0,1.08.26,2.27,2.27,0,0,0,1-.23l50.81-24.62,1.93,9.26a2.33,2.33,0,0,0-1.84.14L99.4,85.7,48.78,59.38ZM47.74,64.11l50.58,26.3a2.37,2.37,0,0,0,2.16,0l52.9-27.61a2.2,2.2,0,0,0,.5-.34l4.65,22.33-58.48,29.52L43,85.53ZM65.1,102.78v11.71l-11.4-6V97Zm2.15,1.08,11.4,5.76v12l-11.4-6ZM80.8,110.7l11.4,5.76v12.32l-11.4-6ZM51.55,95.94v11.41l-11.4-6V98.75L41.84,91Zm47.17,36.28-4.37-2.31V117.54l4.47,2.26a2.75,2.75,0,0,0,2.46,0l4.47-2.26v11.2Z" fill="#64ffda"/>
    <path d="M67.79,42.12H66.38V40.7a2,2,0,0,0-3.9,0v1.42H61.07a1.95,1.95,0,1,0,0,3.89h1.41v1.41a1.95,1.95,0,0,0,3.9,0V46h1.41a1.95,1.95,0,1,0,0-3.89Z" fill="#64ffda"/>
    <path d="M130.62,46H132v1.41a1.95,1.95,0,0,0,3.9,0V46h1.41a1.95,1.95,0,1,0,0-3.89h-1.41V40.7a2,2,0,0,0-3.9,0v1.42h-1.41a1.95,1.95,0,1,0,0,3.89Z" fill="#64ffda"/>
    <path d="M113.23,56h1.41v1.41a2,2,0,1,0,3.9,0V56H120a2,2,0,1,0,0-3.9h-1.41V50.64a2,2,0,1,0-3.9,0v1.41h-1.41a2,2,0,1,0,0,3.9Z" fill="#64ffda"/>
    <path d="M101.15,61.84V60.43h1.41a1.95,1.95,0,1,0,0-3.9h-1.41V55.12a1.95,1.95,0,1,0-3.89,0v1.41H95.84a2,2,0,0,0,0,3.9h1.42v1.41a1.95,1.95,0,1,0,3.89,0Z" fill="#64ffda"/>
    <path d="M85.18,52.05H83.77V50.64a2,2,0,1,0-3.9,0v1.41H78.46a1.95,1.95,0,1,0,0,3.9h1.41v1.41a1.95,1.95,0,0,0,3.9,0V56h1.41a2,2,0,0,0,0-3.9Z" fill="#64ffda"/>
</svg>
