<svg xmlns="http://www.w3.org/2000/svg" width="425" height="375" viewBox="0 0 425 375">
    <g id="welcome_w">
        <path class="path" d="M125.83,87.23l-21.9,120.24H84.1L68,129.45h-.42l-15.9,78H31.84L9.94,87.23H32.25l10.54,76.33h.41L59.73,87.23H75.84L93,165.42h.42l10.12-78.19Z"/>
    </g>
    <g id="welcome_e">
        <path class="path" d="M139.05,207.47V87.23h62.79v16.21H160.12v35.3h36.35V155H160.12v35.29h41.72v17.23Z"/>
    </g>
    <g id="welcome_l">
        <path class="path" d="M215.47,207.47V87.23h21.07v103h41.73v17.23Z"/>
    </g>
    <g id="welcome_c">
        <path class="path" d="M83.48,317.43v7.43a22.63,22.63,0,0,1-2.58,10.55,29.35,29.35,0,0,1-7.13,8.87,35.19,35.19,0,0,1-10.64,6.16A37.09,37.09,0,0,1,50,352.72a57.12,57.12,0,0,1-12.19-1.35,31.44,31.44,0,0,1-11.16-4.73A27.58,27.58,0,0,1,18.52,338q-3.21-5.32-3.21-13.6V258.16a24.7,24.7,0,0,1,2.48-11,26,26,0,0,1,7-8.78,34.08,34.08,0,0,1,10.84-5.83,43.89,43.89,0,0,1,13.94-2.11q14.88,0,24.17,7.94a28.22,28.22,0,0,1,7.13,9.2,26.19,26.19,0,0,1,2.58,11.57v6.76H62.41v-5.75a12.35,12.35,0,0,0-13-12.49q-7.86,0-10.43,4a18,18,0,0,0-2.59,10v61.47A13.75,13.75,0,0,0,39.17,332q2.79,3.56,10,3.55a18.6,18.6,0,0,0,4.44-.59,14.32,14.32,0,0,0,4.44-2,10.4,10.4,0,0,0,3.1-3.71,12.62,12.62,0,0,0,1.24-5.91v-5.91Z"/>
    </g>
    <g id="welcome_o">
        <path class="path" d="M99.39,259.85A26.06,26.06,0,0,1,102.48,247a28.24,28.24,0,0,1,8.27-9.29,37.29,37.29,0,0,1,11.26-5.4,44.29,44.29,0,0,1,25.4,0,40.44,40.44,0,0,1,11.47,5.4,29.23,29.23,0,0,1,8.05,9.29,26,26,0,0,1,3.1,12.84v63.49a25.66,25.66,0,0,1-3.1,13,27.81,27.81,0,0,1-8.05,9,37.59,37.59,0,0,1-11.47,5.57,44.29,44.29,0,0,1-25.4,0,34.8,34.8,0,0,1-11.26-5.57,26.93,26.93,0,0,1-8.27-9,25.76,25.76,0,0,1-3.09-13Zm21.07,63.49q0,6.26,4.23,9.2a18.44,18.44,0,0,0,20,0q4.23-3,4.23-9.2V259.85q0-6.26-4.23-9.21a18.49,18.49,0,0,0-20,0q-4.23,3-4.23,9.21Z"/>
    </g>
    <g id="welcome_m">
        <path class="path" d="M188.62,351.71V231.48h20.25l27.06,63.66h.41l26.85-63.66h20.45V351.71H262.57V278.59h-.41L241.3,330.26H230.76l-20.65-51.67h-.42v73.12Z"/>
    </g>
    <g id="welcome_e">
        <path class="path" d="M303.47,351.71V231.48h62.8v16.21H324.54V283H360.9v16.21H324.54v35.29h41.73v17.23Z"/>
    </g>

    <g id="welcome_dot">
        <circle class="dot" cx="400" cy="335" r="15"/>
    </g>
</svg>
